HIERARCHY
ROOT Hips
{
	OFFSET 0.000000 83.214638 0.000000
	CHANNELS 6 Xposition Yposition Zposition Xrotation Yrotation Zrotation
	JOINT Pelvis
	{
		OFFSET 0.000000 0.000000 0.000000
		CHANNELS 3 Xrotation Yrotation Zrotation
		JOINT LeftUpLeg
		{
			OFFSET 8.479700 -4.795502 -0.379100
			CHANNELS 3 Xrotation Yrotation Zrotation
			JOINT LeftLeg
			{
				OFFSET 0.024144 -32.555107 0.112900
				CHANNELS 3 Xrotation Yrotation Zrotation
				JOINT LeftFoot
				{
					OFFSET -0.024144 -32.638630 -3.012600
					CHANNELS 3 Xrotation Yrotation Zrotation
					JOINT LeftToeBase
					{
						OFFSET 0.970200 -13.225400 11.864200
						CHANNELS 3 Xrotation Yrotation Zrotation
						End Site
						{
							OFFSET 0.000000 12.319262 0.000000
						}
					}
					JOINT LFootTongue
					{
						OFFSET 1.142400 -1.059800 6.665200
						CHANNELS 3 Xrotation Yrotation Zrotation
						End Site
						{
							OFFSET 0.000000 12.319262 0.000000
						}
					}
				}
				JOINT LeftPantLeg
				{
					OFFSET 0.918482 -16.533964 -2.284700
					CHANNELS 3 Xrotation Yrotation Zrotation
					End Site
					{
						OFFSET 0.350399 24.744368 0.000000
					}
				}
			}
		}
		JOINT RightUpLeg
		{
			OFFSET -8.479700 -4.795502 -0.379100
			CHANNELS 3 Xrotation Yrotation Zrotation
			JOINT RightLeg
			{
				OFFSET -0.023144 -32.555092 0.112900
				CHANNELS 3 Xrotation Yrotation Zrotation
				JOINT RightFoot
				{
					OFFSET 0.023144 -32.638641 -3.012700
					CHANNELS 3 Xrotation Yrotation Zrotation
					JOINT RightToeBase
					{
						OFFSET -0.970200 -13.225400 11.864200
						CHANNELS 3 Xrotation Yrotation Zrotation
						End Site
						{
							OFFSET 0.000000 12.319244 0.000000
						}
					}
					JOINT RFootTongue
					{
						OFFSET -1.142200 -1.059800 6.665200
						CHANNELS 3 Xrotation Yrotation Zrotation
						End Site
						{
							OFFSET 0.000000 12.319243 0.000000
						}
					}
				}
				JOINT RightPantLeg
				{
					OFFSET -0.919482 -16.533978 -2.284800
					CHANNELS 3 Xrotation Yrotation Zrotation
					End Site
					{
						OFFSET -0.350400 24.744419 0.000000
					}
				}
			}
		}
	}
	JOINT Spine
	{
		OFFSET 0.000000 7.722000 1.166200
		CHANNELS 3 Xrotation Yrotation Zrotation
		JOINT Spine1
		{
			OFFSET 0.000000 12.024101 0.248800
			CHANNELS 3 Xrotation Yrotation Zrotation
			JOINT Spine2
			{
				OFFSET 0.000000 11.502998 -0.491200
				CHANNELS 3 Xrotation Yrotation Zrotation
				JOINT Neck
				{
					OFFSET 0.000000 18.430702 -3.123100
					CHANNELS 3 Xrotation Yrotation Zrotation
					JOINT Head
					{
						OFFSET 0.000000 9.051102 1.034000
						CHANNELS 3 Xrotation Yrotation Zrotation
						JOINT HairB
						{
							OFFSET 0.208400 24.786102 24.822300
							CHANNELS 3 Xrotation Yrotation Zrotation
							End Site
							{
								OFFSET 0.000000 32.263779 0.000000
							}
						}
						JOINT HairA
						{
							OFFSET -7.081100 24.428299 23.196600
							CHANNELS 3 Xrotation Yrotation Zrotation
							End Site
							{
								OFFSET 0.000000 32.263779 0.000000
							}
						}
						JOINT Hat
						{
							OFFSET 16.728800 15.048294 -15.439601
							CHANNELS 3 Xrotation Yrotation Zrotation
							End Site
							{
								OFFSET 0.000000 32.263779 0.000000
							}
						}
					}
				}
				JOINT LeftShoulder
				{
					OFFSET 6.197800 13.665199 -4.064700
					CHANNELS 3 Xrotation Yrotation Zrotation
					JOINT LeftArm
					{
						OFFSET 7.778100 -0.187103 -1.709300
						CHANNELS 3 Xrotation Yrotation Zrotation
						JOINT LeftForeArm
						{
							OFFSET 22.049376 0.000000 0.000000
							CHANNELS 3 Xrotation Yrotation Zrotation
							JOINT LeftHand
							{
								OFFSET 23.009392 0.000000 0.000000
								CHANNELS 3 Xrotation Yrotation Zrotation
								JOINT LeftHandThumb1
								{
									OFFSET 3.507191 -2.063065 3.133727
									CHANNELS 3 Xrotation Yrotation Zrotation
									JOINT LeftHandThumb2
									{
										OFFSET 3.101337 -1.790558 1.790558
										CHANNELS 3 Xrotation Yrotation Zrotation
										JOINT LeftHandThumb3
										{
											OFFSET 3.058640 -1.765907 1.765906
											CHANNELS 3 Xrotation Yrotation Zrotation
											End Site
											{
												OFFSET -0.415260 3.926476 -0.049563
											}
										}
									}
								}
								JOINT LeftHandIndex1
								{
									OFFSET 11.334419 -0.901459 3.706815
									CHANNELS 3 Xrotation Yrotation Zrotation
									JOINT LeftHandIndex2
									{
										OFFSET 3.283112 0.000000 0.000000
										CHANNELS 3 Xrotation Yrotation Zrotation
										JOINT LeftHandIndex3
										{
											OFFSET 3.323853 0.000000 0.000000
											CHANNELS 3 Xrotation Yrotation Zrotation
											End Site
											{
												OFFSET -1.135597 3.097809 0.402452
											}
										}
									}
								}
								JOINT LeftHandMiddle1
								{
									OFFSET 11.335861 0.000000 0.000000
									CHANNELS 3 Xrotation Yrotation Zrotation
									JOINT LeftHandMiddle2
									{
										OFFSET 3.410492 0.000000 0.000000
										CHANNELS 3 Xrotation Yrotation Zrotation
										JOINT LeftHandMiddle3
										{
											OFFSET 3.312172 0.000000 0.000000
											CHANNELS 3 Xrotation Yrotation Zrotation
											End Site
											{
												OFFSET -1.150200 3.080154 0.400270
											}
										}
									}
								}
								JOINT LeftHandRing1
								{
									OFFSET 11.514786 -0.013176 -3.003090
									CHANNELS 3 Xrotation Yrotation Zrotation
									JOINT LeftHandRing2
									{
										OFFSET 3.053307 0.000000 0.000000
										CHANNELS 3 Xrotation Yrotation Zrotation
										JOINT LeftHandRing3
										{
											OFFSET 3.295807 0.000000 0.000000
											CHANNELS 3 Xrotation Yrotation Zrotation
											End Site
											{
												OFFSET -1.281006 3.013344 0.375733
											}
										}
									}
								}
								JOINT LeftHandPinky1
								{
									OFFSET 10.518692 -0.960396 -5.730441
									CHANNELS 3 Xrotation Yrotation Zrotation
									JOINT LeftHandPinky2
									{
										OFFSET 2.861649 0.000000 0.000000
										CHANNELS 3 Xrotation Yrotation Zrotation
										JOINT LeftHandPinky3
										{
											OFFSET 2.863380 0.000000 0.000000
											CHANNELS 3 Xrotation Yrotation Zrotation
											End Site
											{
												OFFSET -0.843597 2.711159 0.369971
											}
										}
									}
								}
							}
							JOINT LSleeve
							{
								OFFSET 6.676277 -0.344902 -1.011730
								CHANNELS 3 Xrotation Yrotation Zrotation
								End Site
								{
									OFFSET 0.000000 14.885353 0.000000
								}
							}
						}
					}
				}
				JOINT RightShoulder
				{
					OFFSET -6.197800 13.665199 -4.064700
					CHANNELS 3 Xrotation Yrotation Zrotation
					JOINT RightArm
					{
						OFFSET -7.778100 -0.187103 -1.709300
						CHANNELS 3 Xrotation Yrotation Zrotation
						JOINT RightForeArm
						{
							OFFSET -22.049376 0.000000 0.000000
							CHANNELS 3 Xrotation Yrotation Zrotation
							JOINT RightHand
							{
								OFFSET -23.009392 0.000000 0.000000
								CHANNELS 3 Xrotation Yrotation Zrotation
								JOINT RightHandThumb1
								{
									OFFSET -3.507191 -2.063065 3.133727
									CHANNELS 3 Xrotation Yrotation Zrotation
									JOINT RightHandThumb2
									{
										OFFSET -3.101337 -1.790558 1.790558
										CHANNELS 3 Xrotation Yrotation Zrotation
										JOINT RightHandThumb3
										{
											OFFSET -3.058640 -1.765907 1.765906
											CHANNELS 3 Xrotation Yrotation Zrotation
											End Site
											{
												OFFSET 0.415260 3.926476 -0.049563
											}
										}
									}
								}
								JOINT RightHandIndex1
								{
									OFFSET -11.334419 -0.901459 3.706815
									CHANNELS 3 Xrotation Yrotation Zrotation
									JOINT RightHandIndex2
									{
										OFFSET -3.283112 0.000000 0.000000
										CHANNELS 3 Xrotation Yrotation Zrotation
										JOINT RightHandIndex3
										{
											OFFSET -3.323853 0.000000 0.000000
											CHANNELS 3 Xrotation Yrotation Zrotation
											End Site
											{
												OFFSET 1.135597 3.097809 0.402452
											}
										}
									}
								}
								JOINT RightHandMiddle1
								{
									OFFSET -11.335861 0.000000 0.000000
									CHANNELS 3 Xrotation Yrotation Zrotation
									JOINT RightHandMiddle2
									{
										OFFSET -3.410492 0.000000 0.000000
										CHANNELS 3 Xrotation Yrotation Zrotation
										JOINT RightHandMiddle3
										{
											OFFSET -3.312172 0.000000 0.000000
											CHANNELS 3 Xrotation Yrotation Zrotation
											End Site
											{
												OFFSET 1.150200 3.080154 0.400270
											}
										}
									}
								}
								JOINT RightHandRing1
								{
									OFFSET -11.514786 -0.013176 -3.003090
									CHANNELS 3 Xrotation Yrotation Zrotation
									JOINT RightHandRing2
									{
										OFFSET -3.053307 0.000000 0.000000
										CHANNELS 3 Xrotation Yrotation Zrotation
										JOINT RightHandRing3
										{
											OFFSET -3.295807 0.000000 0.000000
											CHANNELS 3 Xrotation Yrotation Zrotation
											End Site
											{
												OFFSET 1.281006 3.013344 0.375733
											}
										}
									}
								}
								JOINT RightHandPinky1
								{
									OFFSET -10.518692 -0.960396 -5.730441
									CHANNELS 3 Xrotation Yrotation Zrotation
									JOINT RightHandPinky2
									{
										OFFSET -2.861649 0.000000 0.000000
										CHANNELS 3 Xrotation Yrotation Zrotation
										JOINT RightHandPinky3
										{
											OFFSET -2.863380 0.000000 0.000000
											CHANNELS 3 Xrotation Yrotation Zrotation
											End Site
											{
												OFFSET 0.843597 2.711159 0.369971
											}
										}
									}
								}
							}
							JOINT RSleeve
							{
								OFFSET -6.676277 -0.344902 -1.011730
								CHANNELS 3 Xrotation Yrotation Zrotation
								End Site
								{
									OFFSET 0.000000 14.885353 0.000000
								}
							}
						}
					}
				}
				JOINT Backpack
				{
					OFFSET 0.000000 -2.471497 36.677502
					CHANNELS 3 Xrotation Yrotation Zrotation
					End Site
					{
						OFFSET 0.000000 20.427315 0.000000
					}
				}
				JOINT Hood
				{
					OFFSET 0.000000 18.754097 -10.431000
					CHANNELS 3 Xrotation Yrotation Zrotation
					JOINT Hood1
					{
						OFFSET 0.000000 -5.011002 -7.685901
						CHANNELS 3 Xrotation Yrotation Zrotation
						End Site
						{
							OFFSET 0.000000 9.175140 0.000000
						}
					}
				}
				JOINT LHoodieString
				{
					OFFSET 5.250500 16.397697 3.089900
					CHANNELS 3 Xrotation Yrotation Zrotation
					JOINT LHoodieString1
					{
						OFFSET 0.257700 -6.364304 3.694600
						CHANNELS 3 Xrotation Yrotation Zrotation
						JOINT LHoodieString2
						{
							OFFSET 0.000000 -9.643799 2.679100
							CHANNELS 3 Xrotation Yrotation Zrotation
							End Site
							{
								OFFSET 0.000000 10.009018 0.000000
							}
						}
					}
				}
				JOINT RHoodieString
				{
					OFFSET -5.250500 16.397697 3.089900
					CHANNELS 3 Xrotation Yrotation Zrotation
					JOINT RHoodieString1
					{
						OFFSET -0.257700 -6.364304 3.694600
						CHANNELS 3 Xrotation Yrotation Zrotation
						JOINT RHoodieString2
						{
							OFFSET 0.000000 -9.643799 2.679100
							CHANNELS 3 Xrotation Yrotation Zrotation
							End Site
							{
								OFFSET 0.000000 10.009018 0.000000
							}
						}
					}
				}
			}
			JOINT LBackpack_Strap
			{
				OFFSET 15.223200 -7.719803 -6.610900
				CHANNELS 3 Xrotation Yrotation Zrotation
				End Site
				{
					OFFSET 0.000000 16.040596 0.000000
				}
			}
			JOINT RBackpack_Strap
			{
				OFFSET -15.223000 -7.719803 -6.610900
				CHANNELS 3 Xrotation Yrotation Zrotation
				End Site
				{
					OFFSET 0.000000 16.040596 0.000000
				}
			}
		}
	}
	JOINT BoyFacialAnim_Joint
	{
		OFFSET 1.000000 -82.208099 -1.550900
		CHANNELS 3 Xrotation Yrotation Zrotation
		End Site
		{
			OFFSET 0.000000 30.012791 0.000000
		}
	}
}
MOTION
Frames: 5
Frame Time: 0.033333
17.744335 100.661003 13.509920 -59.921079 260.741078 -68.345393 -0.000001 -0.000000 0.000000 -70.295658 7.990886 44.643701 115.316474 6.206601 -3.511850 28.806832 5.714073 34.462604 0.000000 0.000000 -0.000000 0.000000 0.000000 0.000000 -0.000002 0.000000 0.000001 -84.092715 9.355114 -2.628975 77.957170 -9.282116 -6.297922 47.490049 -9.087578 -0.170011 0.000000 -0.000001 -0.000003 0.000000 -0.000001 -0.000003 0.000001 -0.000002 -0.000002 11.231002 -3.008618 7.386266 11.816009 -0.431712 2.309486 11.860902 -0.704001 1.896114 -6.475464 0.155561 -0.987906 -1.226190 20.339909 -8.292646 0.000002 -0.000000 -0.000000 0.000002 -0.000000 -0.000000 0.000002 -0.000000 -0.000000 1.007195 -6.659822 -14.945414 72.831461 -63.988272 38.781346 0.000017 -57.709388 0.000027 -51.877182 -7.991354 57.081445 16.529924 9.058321 -17.957588 19.702411 18.669689 -0.642055 0.000001 -0.000000 0.000002 5.495034 6.740805 -78.351374 5.526024 6.747086 -78.615204 0.000001 0.000001 -0.000002 5.487414 6.739217 -78.286453 5.559135 6.753604 -78.897264 0.000001 -0.000001 -0.000002 5.507338 6.743271 -78.456177 5.548442 6.751513 -78.806436 -0.000003 0.000000 -0.000002 9.531548 7.548086 -78.603354 5.535656 2.662456 -78.732642 0.000001 0.000002 0.000002 -0.000001 0.000001 0.000002 -0.076593 12.310155 14.904414 -20.012330 9.925003 29.426087 0.000038 138.458398 -0.000034 -36.755447 9.349277 -3.386003 19.351890 1.650315 25.056815 29.764810 -26.872012 -8.581526 -0.000003 -0.000003 -0.000002 5.163799 -6.716282 75.083641 5.187747 -6.722569 75.288260 -0.000000 0.000003 0.000000 5.227116 -6.732715 75.624428 5.272560 -6.744103 76.011755 0.000000 0.000003 0.000000 5.316992 -6.754948 76.389771 5.352704 -6.763441 76.693196 -0.000001 0.000002 0.000002 5.396752 -6.773614 77.067012 5.396789 -6.773645 77.067087 0.000001 -0.000000 0.000002 -0.000003 0.000001 -0.000003 -0.000000 0.000000 0.000000 -0.000000 0.000000 0.000000 -0.000000 0.000000 0.000000 -0.000000 0.000000 0.000000 -0.000000 0.000000 -0.000001 -0.000000 0.000000 0.000000 -0.000000 0.000000 0.000000 -0.000000 0.000000 -0.000001 -0.000000 0.000000 0.000000 -0.000001 0.000000 -0.000000 -0.000001 0.000000 -0.000000 -0.000001 -0.000000 0.000000 
17.329784 98.330734 11.456219 -144.253677 259.658493 -154.472979 -0.000000 -0.000000 0.000001 -64.164887 14.252485 43.003004 105.039970 7.365627 -2.418198 29.930709 5.696105 32.049601 0.000000 -0.000000 -0.000001 0.000000 -0.000000 -0.000001 -0.000000 0.000002 -0.000000 -74.588029 7.397109 -4.855497 68.269722 -8.676677 -9.232023 44.172923 -7.713576 2.785405 -0.000001 0.000000 0.000002 -0.000001 0.000000 0.000002 -0.000000 0.000000 -0.000000 9.861226 -4.067306 8.519310 10.348461 -0.863999 2.840287 10.406772 -1.142563 2.428687 -5.649775 -0.334602 -0.226558 3.056536 18.932303 -8.098038 0.000001 -0.000001 0.000000 0.000001 -0.000001 0.000000 0.000001 -0.000001 0.000000 0.942667 -6.757669 -14.267474 72.118772 -62.149571 34.762135 0.000035 -65.572248 0.000044 -50.844522 -5.299490 60.181651 16.529925 9.058320 -17.957588 19.702411 18.669687 -0.642055 0.000001 -0.000001 -0.000000 5.495034 6.740812 -78.351381 5.526020 6.747081 -78.615197 -0.000001 0.000000 -0.000002 5.487412 6.739218 -78.286447 5.559138 6.753598 -78.897264 0.000001 -0.000001 0.000000 5.507335 6.743277 -78.456170 5.548442 6.751514 -78.806436 0.000003 0.000000 -0.000002 9.531549 7.548092 -78.603347 5.535654 2.662459 -78.732642 -0.000000 0.000000 -0.000000 0.000002 0.000000 -0.000000 0.129408 10.673825 14.337938 -20.183308 8.335232 29.940281 0.000002 141.693340 0.000003 -42.146481 2.072926 -0.608967 19.351890 1.650311 25.056819 29.764810 -26.872013 -8.581523 -0.000002 -0.000000 0.000001 5.163803 -6.716282 75.083648 5.187742 -6.722568 75.288260 -0.000001 0.000002 0.000000 5.227119 -6.732719 75.624428 5.272564 -6.744104 76.011755 0.000002 0.000000 0.000002 5.316995 -6.754950 76.389771 5.352704 -6.763440 76.693196 -0.000002 -0.000002 0.000004 5.396753 -6.773615 77.067019 5.396789 -6.773643 77.067087 0.000001 -0.000000 -0.000002 0.000003 0.000000 0.000001 0.000004 -0.000000 0.000000 0.000004 -0.000000 0.000000 0.000004 -0.000000 0.000000 0.000004 -0.000000 0.000000 0.000004 -0.000000 0.000000 -0.000001 -0.000000 -0.000000 0.000004 -0.000000 0.000000 0.000004 -0.000000 0.000000 -0.000001 -0.000000 -0.000000 -0.000000 -0.000000 -0.000000 -0.000000 -0.000000 -0.000000 -0.000000 -0.000000 0.000001 
16.267902 95.993576 9.556618 -167.379605 248.640906 -178.630402 -0.000000 0.000001 -0.000000 -53.617040 19.689060 39.632265 88.325349 4.765776 -1.989372 33.410236 5.012142 27.054704 -0.000000 -0.000002 0.000002 -0.000000 -0.000002 0.000002 0.000002 0.000001 0.000000 -65.152717 6.299850 -7.140995 59.849321 -6.728100 -10.119132 39.552826 -7.924167 5.957930 -0.000001 0.000001 -0.000000 -0.000001 0.000001 -0.000000 0.000000 0.000000 -0.000002 8.608515 -4.986153 8.670616 9.020191 -1.120187 2.923808 9.082938 -1.401352 2.498020 -4.691753 -0.846722 0.374305 5.240013 17.492210 -7.013751 -0.000000 -0.000002 -0.000000 -0.000000 -0.000002 -0.000000 -0.000000 -0.000002 -0.000000 0.863840 -6.772069 -13.657739 68.316706 -60.377978 28.403903 0.000002 -74.228303 0.000007 -48.319453 -3.079621 61.807044 16.529922 9.058317 -17.957594 19.702405 18.669687 -0.642055 0.000002 -0.000002 -0.000000 5.495040 6.740810 -78.351381 5.526020 6.747083 -78.615204 -0.000003 -0.000001 -0.000002 5.487422 6.739221 -78.286453 5.559136 6.753594 -78.897264 0.000003 -0.000001 -0.000003 5.507340 6.743275 -78.456177 5.548444 6.751510 -78.806436 -0.000003 -0.000001 -0.000000 9.531551 7.548089 -78.603354 5.535656 2.662460 -78.732642 0.000004 0.000001 -0.000004 0.000000 0.000000 0.000001 0.397687 8.471993 12.881058 -22.902563 7.005951 31.685589 0.000014 144.770805 -0.000022 -47.873824 -3.540762 -4.153246 19.351896 1.650314 25.056810 29.764814 -26.872006 -8.581521 -0.000002 -0.000004 -0.000004 5.163800 -6.716280 75.083634 5.187746 -6.722567 75.288267 -0.000003 -0.000001 0.000002 5.227120 -6.732717 75.624421 5.272564 -6.744103 76.011755 0.000000 -0.000002 -0.000001 5.316997 -6.754951 76.389778 5.352707 -6.763442 76.693196 -0.000001 0.000000 -0.000001 5.396752 -6.773616 77.067005 5.396789 -6.773648 77.067080 -0.000000 0.000001 -0.000001 0.000000 -0.000003 -0.000003 -0.000002 -0.000001 -0.000000 -0.000002 -0.000001 -0.000000 -0.000002 -0.000001 -0.000000 -0.000002 -0.000001 -0.000000 -0.000002 -0.000001 -0.000000 -0.000002 0.000000 -0.000001 -0.000002 -0.000001 -0.000000 -0.000002 -0.000001 -0.000000 -0.000002 0.000000 -0.000001 -0.000001 -0.000001 0.000000 -0.000001 -0.000001 0.000000 -0.000000 0.000001 -0.000000 
15.026829 93.541351 7.862285 -173.239415 236.874621 -185.142919 -0.000000 -0.000001 -0.000000 -41.682797 24.063081 36.477141 67.099177 5.937943 -1.439617 36.804679 1.666021 22.032717 0.000000 0.000001 0.000001 0.000000 0.000001 0.000001 -0.000003 -0.000001 0.000000 -54.193231 7.338126 -8.528884 49.766367 -6.550202 -10.128248 35.439826 -7.954902 10.586774 -0.000001 0.000000 0.000001 -0.000001 0.000000 0.000001 -0.000001 0.000001 -0.000001 7.377388 -5.584384 8.123319 7.770729 -1.177823 2.755480 7.837378 -1.440198 2.312605 -3.556292 -1.484443 1.060621 6.935239 15.775538 -5.606358 0.000001 -0.000000 0.000001 0.000001 -0.000000 0.000001 0.000001 -0.000000 0.000001 0.553351 -6.412759 -12.552774 62.263246 -59.669263 20.494864 0.000467 -83.083685 0.000461 -44.331179 1.330549 60.696053 16.529925 9.058314 -17.957588 19.702410 18.669682 -0.642054 -0.000001 -0.000003 0.000003 5.495040 6.740806 -78.351388 5.526027 6.747085 -78.615197 -0.000001 -0.000002 -0.000002 5.487421 6.739215 -78.286453 5.559133 6.753601 -78.897264 -0.000000 0.000000 -0.000003 5.507339 6.743272 -78.456177 5.548441 6.751511 -78.806443 -0.000006 -0.000001 0.000001 9.531552 7.548085 -78.603354 5.535659 2.662463 -78.732642 -0.000000 -0.000003 0.000003 -0.000001 0.000000 0.000000 0.349044 6.224593 11.391109 -29.422614 6.486443 32.493081 -0.000002 146.148536 0.000003 -56.491562 -7.681078 -12.034330 19.351890 1.650318 25.056819 29.764803 -26.872013 -8.581519 0.000001 0.000001 0.000001 5.163800 -6.716276 75.083641 5.187752 -6.722571 75.288267 -0.000000 0.000002 0.000002 5.227115 -6.732715 75.624428 5.272557 -6.744102 76.011755 0.000002 0.000000 0.000001 5.316991 -6.754948 76.389778 5.352704 -6.763445 76.693203 -0.000000 -0.000001 0.000000 5.396750 -6.773612 77.067012 5.396790 -6.773643 77.067087 0.000001 0.000001 0.000000 -0.000001 -0.000000 -0.000004 -0.000000 0.000002 -0.000001 -0.000000 0.000002 -0.000001 -0.000000 0.000002 -0.000001 -0.000000 0.000002 -0.000001 -0.000000 0.000002 -0.000001 -0.000002 -0.000002 0.000001 -0.000000 0.000002 -0.000001 -0.000000 0.000002 -0.000001 -0.000002 -0.000002 0.000001 0.000001 0.000001 0.000000 0.000001 0.000001 0.000000 -0.000000 -0.000001 -0.000000 
14.034115 90.657112 6.219687 -174.986988 225.344839 -187.371473 -0.000000 0.000000 0.000000 -32.573401 27.528007 33.561791 44.611790 5.991781 0.383677 40.461621 -0.987861 16.830027 -0.000001 0.000001 0.000001 -0.000001 0.000001 0.000001 0.000000 0.000000 -0.000000 -43.055108 9.888925 -9.277711 38.582373 -7.747910 -10.290202 31.906232 -8.304879 13.492946 0.000002 0.000000 -0.000000 0.000002 0.000000 -0.000000 0.000002 0.000000 -0.000000 6.117758 -5.842825 7.042133 6.529946 -1.232593 2.426780 6.589589 -1.459326 1.986815 -1.706004 -2.017319 1.573137 8.494159 14.492270 -4.621580 -0.000002 -0.000003 0.000001 -0.000002 -0.000003 0.000001 -0.000002 -0.000003 0.000001 0.434464 -5.723828 -11.511193 52.025667 -59.739751 10.538830 0.033739 -92.589034 0.033681 -41.571274 9.784401 57.123362 16.529922 9.058322 -17.957588 19.702410 18.669687 -0.642052 -0.000003 -0.000000 -0.000001 5.495038 6.740810 -78.351381 5.526023 6.747082 -78.615204 -0.000000 -0.000001 -0.000002 5.487419 6.739215 -78.286453 5.559133 6.753600 -78.897270 -0.000001 0.000001 -0.000001 5.507337 6.743275 -78.456177 5.548443 6.751511 -78.806436 0.000001 0.000000 -0.000000 9.531553 7.548089 -78.603347 5.535655 2.662463 -78.732642 0.000002 -0.000000 -0.000000 -0.000000 -0.000001 0.000001 0.363053 4.120032 9.961311 -39.534675 6.280023 31.121286 -0.000004 144.556965 -0.000004 -67.551671 -10.572527 -20.104363 19.351891 1.650313 25.056819 29.764814 -26.872012 -8.581526 -0.000002 0.000001 -0.000001 5.163801 -6.716282 75.083648 5.187743 -6.722570 75.288260 -0.000001 0.000000 0.000005 5.227116 -6.732718 75.624421 5.272559 -6.744102 76.011755 -0.000000 -0.000003 0.000005 5.316993 -6.754950 76.389771 5.352704 -6.763439 76.693196 0.000000 -0.000001 0.000005 5.396749 -6.773616 77.067005 5.396784 -6.773645 77.067087 -0.000000 0.000000 -0.000001 -0.000000 0.000000 -0.000003 0.000001 -0.000001 0.000001 0.000001 -0.000001 0.000001 0.000001 -0.000001 0.000001 0.000001 -0.000001 0.000001 0.000001 -0.000001 0.000001 -0.000000 -0.000001 0.000001 0.000001 -0.000001 0.000001 0.000001 -0.000001 0.000001 -0.000000 -0.000001 0.000001 0.000001 0.000000 -0.000000 0.000001 0.000000 -0.000000 -0.000000 0.000000 0.000000 
